<mxfile host="app.diagrams.net" agent="Mozilla/5.0 (Windows NT 10.0; Win64; x64) AppleWebKit/537.36 (KHTML, like Gecko) Chrome/130.0.0.0 Safari/537.36" version="24.7.14">
  <diagram id="R2lEEEUBdFMjLlhIrx00" name="Page-1">
    <mxGraphModel grid="1" page="1" gridSize="10" guides="1" tooltips="1" connect="1" arrows="1" fold="1" pageScale="1" pageWidth="1700" pageHeight="1100" math="0" shadow="0" extFonts="Permanent Marker^https://fonts.googleapis.com/css?family=Permanent+Marker">
      <root>
        <mxCell id="0" />
        <mxCell id="1" parent="0" />
        <mxCell id="6yseSgl5Fvlavj9xP4R_-7" value="&lt;font style=&quot;font-size: 18px;&quot;&gt;헌혈자&lt;/font&gt;" style="rounded=0;whiteSpace=wrap;html=1;" vertex="1" parent="1">
          <mxGeometry x="310" y="340" width="120" height="60" as="geometry" />
        </mxCell>
        <mxCell id="6yseSgl5Fvlavj9xP4R_-13" value="&lt;span style=&quot;font-size: 16px;&quot;&gt;이름&lt;/span&gt;" style="ellipse;whiteSpace=wrap;html=1;" vertex="1" parent="1">
          <mxGeometry x="30" y="210" width="100" height="50" as="geometry" />
        </mxCell>
        <mxCell id="6yseSgl5Fvlavj9xP4R_-14" value="&lt;font style=&quot;font-size: 16px;&quot;&gt;생년월일&lt;/font&gt;" style="ellipse;whiteSpace=wrap;html=1;" vertex="1" parent="1">
          <mxGeometry x="30" y="270" width="100" height="50" as="geometry" />
        </mxCell>
        <mxCell id="6yseSgl5Fvlavj9xP4R_-19" value="&lt;font style=&quot;font-size: 16px;&quot;&gt;생년월일&lt;/font&gt;" style="ellipse;whiteSpace=wrap;html=1;" vertex="1" parent="1">
          <mxGeometry x="30" y="330" width="100" height="50" as="geometry" />
        </mxCell>
        <mxCell id="6yseSgl5Fvlavj9xP4R_-20" value="&lt;font style=&quot;font-size: 16px;&quot;&gt;혈액형(FK)&lt;/font&gt;" style="ellipse;whiteSpace=wrap;html=1;" vertex="1" parent="1">
          <mxGeometry x="30" y="390" width="100" height="50" as="geometry" />
        </mxCell>
        <mxCell id="6yseSgl5Fvlavj9xP4R_-21" value="&lt;font style=&quot;font-size: 16px;&quot;&gt;전화번호&lt;/font&gt;&lt;span style=&quot;color: rgba(0, 0, 0, 0); font-family: monospace; font-size: 0px; text-align: start; text-wrap-mode: nowrap;&quot;&gt;%3CmxGraphModel%3E%3Croot%3E%3CmxCell%20id%3D%220%22%2F%3E%3CmxCell%20id%3D%221%22%20parent%3D%220%22%2F%3E%3CmxCell%20id%3D%222%22%20value%3D%22%26lt%3Bfont%20style%3D%26quot%3Bfont-size%3A%2016px%3B%26quot%3B%26gt%3B%ED%98%88%EC%95%A1%ED%98%95%26lt%3B%2Ffont%26gt%3B%22%20style%3D%22ellipse%3BwhiteSpace%3Dwrap%3Bhtml%3D1%3B%22%20vertex%3D%221%22%20parent%3D%221%22%3E%3CmxGeometry%20x%3D%2230%22%20y%3D%22390%22%20width%3D%22100%22%20height%3D%2250%22%20as%3D%22geometry%22%2F%3E%3C%2FmxCell%3E%3C%2Froot%3E%3C%2FmxGraphModel%3E&lt;/span&gt;" style="ellipse;whiteSpace=wrap;html=1;" vertex="1" parent="1">
          <mxGeometry x="30" y="450" width="100" height="50" as="geometry" />
        </mxCell>
        <mxCell id="6yseSgl5Fvlavj9xP4R_-22" value="&lt;span style=&quot;font-size: 16px;&quot;&gt;가능여부&lt;/span&gt;" style="ellipse;whiteSpace=wrap;html=1;" vertex="1" parent="1">
          <mxGeometry x="30" y="510" width="100" height="50" as="geometry" />
        </mxCell>
        <mxCell id="6yseSgl5Fvlavj9xP4R_-28" value="" style="endArrow=none;html=1;rounded=0;" edge="1" parent="1">
          <mxGeometry width="50" height="50" relative="1" as="geometry">
            <mxPoint x="130" y="180" as="sourcePoint" />
            <mxPoint x="200" y="180" as="targetPoint" />
          </mxGeometry>
        </mxCell>
        <mxCell id="6yseSgl5Fvlavj9xP4R_-29" value="" style="endArrow=none;html=1;rounded=0;" edge="1" parent="1">
          <mxGeometry width="50" height="50" relative="1" as="geometry">
            <mxPoint x="130" y="234.63" as="sourcePoint" />
            <mxPoint x="200" y="234.63" as="targetPoint" />
          </mxGeometry>
        </mxCell>
        <mxCell id="6yseSgl5Fvlavj9xP4R_-30" value="" style="endArrow=none;html=1;rounded=0;" edge="1" parent="1">
          <mxGeometry width="50" height="50" relative="1" as="geometry">
            <mxPoint x="130" y="294.63" as="sourcePoint" />
            <mxPoint x="200" y="294.63" as="targetPoint" />
          </mxGeometry>
        </mxCell>
        <mxCell id="6yseSgl5Fvlavj9xP4R_-31" value="" style="endArrow=none;html=1;rounded=0;" edge="1" parent="1">
          <mxGeometry width="50" height="50" relative="1" as="geometry">
            <mxPoint x="130" y="354.63" as="sourcePoint" />
            <mxPoint x="200" y="354.63" as="targetPoint" />
          </mxGeometry>
        </mxCell>
        <mxCell id="6yseSgl5Fvlavj9xP4R_-32" value="" style="endArrow=none;html=1;rounded=0;" edge="1" parent="1">
          <mxGeometry width="50" height="50" relative="1" as="geometry">
            <mxPoint x="130" y="414.63" as="sourcePoint" />
            <mxPoint x="200" y="414.63" as="targetPoint" />
          </mxGeometry>
        </mxCell>
        <mxCell id="6yseSgl5Fvlavj9xP4R_-33" value="" style="endArrow=none;html=1;rounded=0;" edge="1" parent="1">
          <mxGeometry width="50" height="50" relative="1" as="geometry">
            <mxPoint x="130" y="474.63" as="sourcePoint" />
            <mxPoint x="200" y="474.63" as="targetPoint" />
          </mxGeometry>
        </mxCell>
        <mxCell id="6yseSgl5Fvlavj9xP4R_-34" value="" style="endArrow=none;html=1;rounded=0;" edge="1" parent="1">
          <mxGeometry width="50" height="50" relative="1" as="geometry">
            <mxPoint x="130" y="534.63" as="sourcePoint" />
            <mxPoint x="200" y="534.63" as="targetPoint" />
          </mxGeometry>
        </mxCell>
        <mxCell id="6yseSgl5Fvlavj9xP4R_-35" value="" style="endArrow=none;html=1;rounded=0;" edge="1" parent="1">
          <mxGeometry width="50" height="50" relative="1" as="geometry">
            <mxPoint x="200" y="535" as="sourcePoint" />
            <mxPoint x="200" y="179" as="targetPoint" />
          </mxGeometry>
        </mxCell>
        <mxCell id="6yseSgl5Fvlavj9xP4R_-36" value="" style="endArrow=classic;html=1;rounded=0;entryX=0;entryY=0.5;entryDx=0;entryDy=0;" edge="1" parent="1" target="6yseSgl5Fvlavj9xP4R_-7">
          <mxGeometry width="50" height="50" relative="1" as="geometry">
            <mxPoint x="200" y="370" as="sourcePoint" />
            <mxPoint x="250" y="250" as="targetPoint" />
          </mxGeometry>
        </mxCell>
        <mxCell id="6yseSgl5Fvlavj9xP4R_-37" value="&lt;font style=&quot;font-size: 18px;&quot;&gt;헌혈&lt;/font&gt;" style="rhombus;whiteSpace=wrap;html=1;" vertex="1" parent="1">
          <mxGeometry x="560" y="340" width="130" height="60" as="geometry" />
        </mxCell>
        <mxCell id="6yseSgl5Fvlavj9xP4R_-41" value="&lt;font style=&quot;font-size: 16px;&quot;&gt;현혈자ID&lt;/font&gt;" style="ellipse;whiteSpace=wrap;html=1;align=center;fontStyle=4;" vertex="1" parent="1">
          <mxGeometry x="30" y="160" width="100" height="40" as="geometry" />
        </mxCell>
        <mxCell id="6yseSgl5Fvlavj9xP4R_-42" value="" style="endArrow=none;html=1;rounded=0;entryX=0;entryY=0.5;entryDx=0;entryDy=0;" edge="1" parent="1" target="6yseSgl5Fvlavj9xP4R_-37">
          <mxGeometry relative="1" as="geometry">
            <mxPoint x="430" y="369.7" as="sourcePoint" />
            <mxPoint x="590" y="369.7" as="targetPoint" />
          </mxGeometry>
        </mxCell>
        <mxCell id="6yseSgl5Fvlavj9xP4R_-43" value="1" style="resizable=0;html=1;whiteSpace=wrap;align=right;verticalAlign=bottom;fontSize=20;" connectable="0" vertex="1" parent="6yseSgl5Fvlavj9xP4R_-42">
          <mxGeometry x="1" relative="1" as="geometry">
            <mxPoint x="349" y="325" as="offset" />
          </mxGeometry>
        </mxCell>
        <mxCell id="6yseSgl5Fvlavj9xP4R_-46" value="&lt;font style=&quot;font-size: 18px;&quot;&gt;헌혈기록&lt;/font&gt;" style="whiteSpace=wrap;html=1;align=center;" vertex="1" parent="1">
          <mxGeometry x="830" y="340" width="120" height="60" as="geometry" />
        </mxCell>
        <mxCell id="6yseSgl5Fvlavj9xP4R_-47" value="" style="endArrow=none;html=1;rounded=0;" edge="1" parent="1">
          <mxGeometry relative="1" as="geometry">
            <mxPoint x="830" y="369.64" as="sourcePoint" />
            <mxPoint x="690" y="369.64" as="targetPoint" />
          </mxGeometry>
        </mxCell>
        <mxCell id="6yseSgl5Fvlavj9xP4R_-48" value="N" style="resizable=0;html=1;whiteSpace=wrap;align=right;verticalAlign=bottom;fontSize=20;" connectable="0" vertex="1" parent="6yseSgl5Fvlavj9xP4R_-47">
          <mxGeometry x="1" relative="1" as="geometry">
            <mxPoint x="70" as="offset" />
          </mxGeometry>
        </mxCell>
        <mxCell id="6yseSgl5Fvlavj9xP4R_-49" value="&lt;font style=&quot;font-size: 16px;&quot;&gt;헌혈기록ID&lt;/font&gt;" style="ellipse;whiteSpace=wrap;html=1;align=center;fontStyle=4;" vertex="1" parent="1">
          <mxGeometry x="1130" y="200" width="100" height="40" as="geometry" />
        </mxCell>
        <mxCell id="6yseSgl5Fvlavj9xP4R_-50" value="&lt;font style=&quot;font-size: 16px;&quot;&gt;헌혈자ID(FK)&lt;/font&gt;" style="ellipse;whiteSpace=wrap;html=1;align=center;" vertex="1" parent="1">
          <mxGeometry x="1130" y="250" width="100" height="40" as="geometry" />
        </mxCell>
        <mxCell id="6yseSgl5Fvlavj9xP4R_-51" value="&lt;font style=&quot;font-size: 16px;&quot;&gt;헌혈일시&lt;/font&gt;" style="ellipse;whiteSpace=wrap;html=1;align=center;" vertex="1" parent="1">
          <mxGeometry x="1130" y="300" width="100" height="40" as="geometry" />
        </mxCell>
        <mxCell id="6yseSgl5Fvlavj9xP4R_-52" value="&lt;font style=&quot;font-size: 16px;&quot;&gt;헌혈의 종류&lt;/font&gt;" style="ellipse;whiteSpace=wrap;html=1;align=center;" vertex="1" parent="1">
          <mxGeometry x="1130" y="350" width="100" height="40" as="geometry" />
        </mxCell>
        <mxCell id="6yseSgl5Fvlavj9xP4R_-53" value="&lt;font style=&quot;font-size: 16px;&quot;&gt;혈액량&lt;/font&gt;" style="ellipse;whiteSpace=wrap;html=1;align=center;" vertex="1" parent="1">
          <mxGeometry x="1130" y="400" width="100" height="40" as="geometry" />
        </mxCell>
        <mxCell id="6yseSgl5Fvlavj9xP4R_-54" value="&lt;font style=&quot;font-size: 16px;&quot;&gt;헌혈횟수&lt;/font&gt;" style="ellipse;whiteSpace=wrap;html=1;align=center;" vertex="1" parent="1">
          <mxGeometry x="1130" y="450" width="100" height="40" as="geometry" />
        </mxCell>
        <mxCell id="6yseSgl5Fvlavj9xP4R_-56" value="" style="line;strokeWidth=1;rotatable=0;dashed=0;labelPosition=right;align=left;verticalAlign=middle;spacingTop=0;spacingLeft=6;points=[];portConstraint=eastwest;" vertex="1" parent="1">
          <mxGeometry x="1070" y="215" width="60" height="10" as="geometry" />
        </mxCell>
        <mxCell id="6yseSgl5Fvlavj9xP4R_-58" value="" style="line;strokeWidth=1;rotatable=0;dashed=0;labelPosition=right;align=left;verticalAlign=middle;spacingTop=0;spacingLeft=6;points=[];portConstraint=eastwest;" vertex="1" parent="1">
          <mxGeometry x="1070" y="232.5" width="60" height="75" as="geometry" />
        </mxCell>
        <mxCell id="6yseSgl5Fvlavj9xP4R_-59" value="" style="line;strokeWidth=1;rotatable=0;dashed=0;labelPosition=right;align=left;verticalAlign=middle;spacingTop=0;spacingLeft=6;points=[];portConstraint=eastwest;" vertex="1" parent="1">
          <mxGeometry x="1070" y="315" width="60" height="10" as="geometry" />
        </mxCell>
        <mxCell id="6yseSgl5Fvlavj9xP4R_-60" value="" style="line;strokeWidth=1;rotatable=0;dashed=0;labelPosition=right;align=left;verticalAlign=middle;spacingTop=0;spacingLeft=6;points=[];portConstraint=eastwest;" vertex="1" parent="1">
          <mxGeometry x="1070" y="365" width="60" height="10" as="geometry" />
        </mxCell>
        <mxCell id="6yseSgl5Fvlavj9xP4R_-61" value="" style="line;strokeWidth=1;rotatable=0;dashed=0;labelPosition=right;align=left;verticalAlign=middle;spacingTop=0;spacingLeft=6;points=[];portConstraint=eastwest;" vertex="1" parent="1">
          <mxGeometry x="1070" y="415" width="60" height="10" as="geometry" />
        </mxCell>
        <mxCell id="6yseSgl5Fvlavj9xP4R_-62" value="" style="line;strokeWidth=1;rotatable=0;dashed=0;labelPosition=right;align=left;verticalAlign=middle;spacingTop=0;spacingLeft=6;points=[];portConstraint=eastwest;" vertex="1" parent="1">
          <mxGeometry x="1070" y="465" width="60" height="10" as="geometry" />
        </mxCell>
        <mxCell id="6yseSgl5Fvlavj9xP4R_-64" value="" style="endArrow=none;html=1;rounded=0;" edge="1" parent="1">
          <mxGeometry width="50" height="50" relative="1" as="geometry">
            <mxPoint x="1070" y="471" as="sourcePoint" />
            <mxPoint x="1070" y="220" as="targetPoint" />
          </mxGeometry>
        </mxCell>
        <mxCell id="6yseSgl5Fvlavj9xP4R_-67" value="&lt;font style=&quot;font-size: 18px;&quot;&gt;저장&lt;/font&gt;" style="rhombus;whiteSpace=wrap;html=1;" vertex="1" parent="1">
          <mxGeometry x="825" y="550" width="130" height="60" as="geometry" />
        </mxCell>
        <mxCell id="6yseSgl5Fvlavj9xP4R_-70" value="" style="endArrow=none;html=1;rounded=0;entryX=0.5;entryY=1;entryDx=0;entryDy=0;" edge="1" parent="1" target="6yseSgl5Fvlavj9xP4R_-46">
          <mxGeometry width="50" height="50" relative="1" as="geometry">
            <mxPoint x="890" y="550" as="sourcePoint" />
            <mxPoint x="950" y="530" as="targetPoint" />
          </mxGeometry>
        </mxCell>
        <mxCell id="6yseSgl5Fvlavj9xP4R_-71" value="" style="endArrow=classic;html=1;rounded=0;" edge="1" parent="1">
          <mxGeometry width="50" height="50" relative="1" as="geometry">
            <mxPoint x="1070" y="370" as="sourcePoint" />
            <mxPoint x="950" y="369.5" as="targetPoint" />
          </mxGeometry>
        </mxCell>
        <mxCell id="6yseSgl5Fvlavj9xP4R_-72" value="" style="endArrow=none;html=1;rounded=0;" edge="1" parent="1">
          <mxGeometry width="50" height="50" relative="1" as="geometry">
            <mxPoint x="890" y="720" as="sourcePoint" />
            <mxPoint x="890" y="610" as="targetPoint" />
          </mxGeometry>
        </mxCell>
        <mxCell id="6yseSgl5Fvlavj9xP4R_-73" value="&lt;font style=&quot;font-size: 18px;&quot;&gt;혈액형 보유량&lt;/font&gt;" style="rounded=0;whiteSpace=wrap;html=1;" vertex="1" parent="1">
          <mxGeometry x="830" y="720" width="120" height="60" as="geometry" />
        </mxCell>
        <mxCell id="6yseSgl5Fvlavj9xP4R_-75" value="&lt;span style=&quot;font-size: 16px;&quot;&gt;혈액형&lt;/span&gt;" style="ellipse;whiteSpace=wrap;html=1;align=center;" vertex="1" parent="1">
          <mxGeometry x="1130" y="680" width="100" height="40" as="geometry" />
        </mxCell>
        <mxCell id="6yseSgl5Fvlavj9xP4R_-76" value="&lt;font style=&quot;font-size: 16px;&quot;&gt;보관기간&lt;/font&gt;" style="ellipse;whiteSpace=wrap;html=1;align=center;" vertex="1" parent="1">
          <mxGeometry x="1130" y="730" width="100" height="40" as="geometry" />
        </mxCell>
        <mxCell id="6yseSgl5Fvlavj9xP4R_-78" value="&lt;span style=&quot;font-size: 16px;&quot;&gt;가능여부&lt;/span&gt;" style="ellipse;whiteSpace=wrap;html=1;align=center;" vertex="1" parent="1">
          <mxGeometry x="1130" y="780" width="100" height="40" as="geometry" />
        </mxCell>
        <mxCell id="6yseSgl5Fvlavj9xP4R_-79" value="" style="line;strokeWidth=1;rotatable=0;dashed=0;labelPosition=right;align=left;verticalAlign=middle;spacingTop=0;spacingLeft=6;points=[];portConstraint=eastwest;" vertex="1" parent="1">
          <mxGeometry x="1070" y="645" width="60" height="10" as="geometry" />
        </mxCell>
        <mxCell id="6yseSgl5Fvlavj9xP4R_-80" value="" style="line;strokeWidth=1;rotatable=0;dashed=0;labelPosition=right;align=left;verticalAlign=middle;spacingTop=0;spacingLeft=6;points=[];portConstraint=eastwest;" vertex="1" parent="1">
          <mxGeometry x="1070" y="695" width="60" height="10" as="geometry" />
        </mxCell>
        <mxCell id="6yseSgl5Fvlavj9xP4R_-81" value="" style="line;strokeWidth=1;rotatable=0;dashed=0;labelPosition=right;align=left;verticalAlign=middle;spacingTop=0;spacingLeft=6;points=[];portConstraint=eastwest;" vertex="1" parent="1">
          <mxGeometry x="1070" y="745" width="60" height="10" as="geometry" />
        </mxCell>
        <mxCell id="6yseSgl5Fvlavj9xP4R_-82" value="" style="line;strokeWidth=1;rotatable=0;dashed=0;labelPosition=right;align=left;verticalAlign=middle;spacingTop=0;spacingLeft=6;points=[];portConstraint=eastwest;" vertex="1" parent="1">
          <mxGeometry x="1070" y="795" width="60" height="10" as="geometry" />
        </mxCell>
        <mxCell id="6yseSgl5Fvlavj9xP4R_-83" value="" style="endArrow=none;html=1;rounded=0;" edge="1" parent="1">
          <mxGeometry width="50" height="50" relative="1" as="geometry">
            <mxPoint x="1070" y="801" as="sourcePoint" />
            <mxPoint x="1071" y="650" as="targetPoint" />
          </mxGeometry>
        </mxCell>
        <mxCell id="6yseSgl5Fvlavj9xP4R_-84" value="" style="endArrow=classic;html=1;rounded=0;entryX=1;entryY=0.5;entryDx=0;entryDy=0;" edge="1" parent="1" target="6yseSgl5Fvlavj9xP4R_-73">
          <mxGeometry width="50" height="50" relative="1" as="geometry">
            <mxPoint x="1070" y="750" as="sourcePoint" />
            <mxPoint x="940" y="680" as="targetPoint" />
          </mxGeometry>
        </mxCell>
        <mxCell id="6yseSgl5Fvlavj9xP4R_-85" value="N" style="resizable=0;html=1;whiteSpace=wrap;align=right;verticalAlign=bottom;fontSize=20;" connectable="0" vertex="1" parent="1">
          <mxGeometry x="800" y="389.9999999999999" as="geometry">
            <mxPoint x="111" y="114" as="offset" />
          </mxGeometry>
        </mxCell>
        <mxCell id="6yseSgl5Fvlavj9xP4R_-86" value="&lt;font style=&quot;font-size: 16px;&quot;&gt;혈액형ID&lt;/font&gt;" style="ellipse;whiteSpace=wrap;html=1;align=center;fontStyle=4;" vertex="1" parent="1">
          <mxGeometry x="1130" y="630" width="100" height="40" as="geometry" />
        </mxCell>
        <mxCell id="6yseSgl5Fvlavj9xP4R_-87" value="&lt;font style=&quot;font-size: 18px;&quot;&gt;재고&lt;/font&gt;" style="rhombus;whiteSpace=wrap;html=1;" vertex="1" parent="1">
          <mxGeometry x="560" y="720" width="130" height="60" as="geometry" />
        </mxCell>
        <mxCell id="6yseSgl5Fvlavj9xP4R_-88" value="" style="endArrow=none;html=1;rounded=0;" edge="1" parent="1">
          <mxGeometry relative="1" as="geometry">
            <mxPoint x="690" y="749.58" as="sourcePoint" />
            <mxPoint x="830" y="750" as="targetPoint" />
          </mxGeometry>
        </mxCell>
        <mxCell id="6yseSgl5Fvlavj9xP4R_-89" value="" style="endArrow=none;html=1;rounded=0;" edge="1" parent="1">
          <mxGeometry relative="1" as="geometry">
            <mxPoint x="420" y="749.58" as="sourcePoint" />
            <mxPoint x="560" y="750" as="targetPoint" />
          </mxGeometry>
        </mxCell>
        <mxCell id="6yseSgl5Fvlavj9xP4R_-91" value="&lt;font style=&quot;font-size: 18px;&quot;&gt;병원 헌혈센터&lt;/font&gt;" style="rounded=0;whiteSpace=wrap;html=1;" vertex="1" parent="1">
          <mxGeometry x="300" y="720" width="120" height="60" as="geometry" />
        </mxCell>
        <mxCell id="6yseSgl5Fvlavj9xP4R_-92" value="&lt;font style=&quot;font-size: 16px;&quot;&gt;병원ID&lt;/font&gt;" style="ellipse;whiteSpace=wrap;html=1;align=center;fontStyle=4;" vertex="1" parent="1">
          <mxGeometry x="20" y="645" width="100" height="40" as="geometry" />
        </mxCell>
        <mxCell id="6yseSgl5Fvlavj9xP4R_-93" value="&lt;span style=&quot;font-size: 16px;&quot;&gt;병원이름&lt;/span&gt;" style="ellipse;whiteSpace=wrap;html=1;align=center;" vertex="1" parent="1">
          <mxGeometry x="20" y="695" width="100" height="40" as="geometry" />
        </mxCell>
        <mxCell id="6yseSgl5Fvlavj9xP4R_-95" value="&lt;span style=&quot;font-size: 16px;&quot;&gt;병원 위치&lt;/span&gt;" style="ellipse;whiteSpace=wrap;html=1;align=center;" vertex="1" parent="1">
          <mxGeometry x="20" y="745" width="100" height="40" as="geometry" />
        </mxCell>
        <mxCell id="6yseSgl5Fvlavj9xP4R_-96" value="&lt;span style=&quot;font-size: 16px;&quot;&gt;병원 번호&lt;/span&gt;" style="ellipse;whiteSpace=wrap;html=1;align=center;" vertex="1" parent="1">
          <mxGeometry x="20" y="795" width="100" height="40" as="geometry" />
        </mxCell>
        <mxCell id="6yseSgl5Fvlavj9xP4R_-97" value="" style="endArrow=none;html=1;rounded=0;" edge="1" parent="1">
          <mxGeometry width="50" height="50" relative="1" as="geometry">
            <mxPoint x="120" y="664.58" as="sourcePoint" />
            <mxPoint x="190" y="664.58" as="targetPoint" />
          </mxGeometry>
        </mxCell>
        <mxCell id="6yseSgl5Fvlavj9xP4R_-98" value="" style="endArrow=none;html=1;rounded=0;" edge="1" parent="1">
          <mxGeometry width="50" height="50" relative="1" as="geometry">
            <mxPoint x="120" y="714.58" as="sourcePoint" />
            <mxPoint x="190" y="714.58" as="targetPoint" />
          </mxGeometry>
        </mxCell>
        <mxCell id="6yseSgl5Fvlavj9xP4R_-99" value="" style="endArrow=none;html=1;rounded=0;" edge="1" parent="1">
          <mxGeometry width="50" height="50" relative="1" as="geometry">
            <mxPoint x="120" y="764.58" as="sourcePoint" />
            <mxPoint x="190" y="764.58" as="targetPoint" />
          </mxGeometry>
        </mxCell>
        <mxCell id="6yseSgl5Fvlavj9xP4R_-100" value="" style="endArrow=none;html=1;rounded=0;" edge="1" parent="1">
          <mxGeometry width="50" height="50" relative="1" as="geometry">
            <mxPoint x="120" y="814.58" as="sourcePoint" />
            <mxPoint x="190" y="814.58" as="targetPoint" />
          </mxGeometry>
        </mxCell>
        <mxCell id="6yseSgl5Fvlavj9xP4R_-101" value="" style="endArrow=none;html=1;rounded=0;" edge="1" parent="1">
          <mxGeometry width="50" height="50" relative="1" as="geometry">
            <mxPoint x="190" y="816" as="sourcePoint" />
            <mxPoint x="190" y="664" as="targetPoint" />
          </mxGeometry>
        </mxCell>
        <mxCell id="6yseSgl5Fvlavj9xP4R_-102" value="" style="endArrow=classic;html=1;rounded=0;entryX=0;entryY=0.5;entryDx=0;entryDy=0;" edge="1" parent="1" target="6yseSgl5Fvlavj9xP4R_-91">
          <mxGeometry width="50" height="50" relative="1" as="geometry">
            <mxPoint x="190" y="750" as="sourcePoint" />
            <mxPoint x="240" y="705" as="targetPoint" />
          </mxGeometry>
        </mxCell>
        <mxCell id="6yseSgl5Fvlavj9xP4R_-103" value="N" style="resizable=0;html=1;whiteSpace=wrap;align=right;verticalAlign=bottom;fontSize=20;" connectable="0" vertex="1" parent="1">
          <mxGeometry x="520" y="754.9999999999999" as="geometry" />
        </mxCell>
        <mxCell id="6yseSgl5Fvlavj9xP4R_-104" value="M" style="resizable=0;html=1;whiteSpace=wrap;align=right;verticalAlign=bottom;fontSize=20;" connectable="0" vertex="1" parent="1">
          <mxGeometry x="750" y="754.9999999999999" as="geometry" />
        </mxCell>
        <mxCell id="6yseSgl5Fvlavj9xP4R_-105" value="1" style="resizable=0;html=1;whiteSpace=wrap;align=right;verticalAlign=bottom;fontSize=20;" connectable="0" vertex="1" parent="1">
          <mxGeometry x="459.9996538475366" y="389.9999992011865" as="geometry">
            <mxPoint x="61" y="-19" as="offset" />
          </mxGeometry>
        </mxCell>
      </root>
    </mxGraphModel>
  </diagram>
</mxfile>
